<svg xmlns="http://www.w3.org/2000/svg" xmlns:xlink="http://www.w3.org/1999/xlink" viewBox="0 0 1244 250" preserveAspectRatio="xMidYMid" style="display: block; shape-rendering: auto; background: transparent;" width="1244" height="250"><style type="text/css">
  .ld-text text {
    text-anchor: middle;
    dominant-baseline: middle;
    font-size: 73px;
    opacity: 0;
    user-select: none;
    pointer-events: none;
  }
</style>
<g style="transform-origin:622px 125px;transform:scale(1)" class="ld-text">
<g transform="translate(622,125)">
  <g transform="scale(0.9125) translate(0,0)"><g class="path" style="opacity: 1; transform-origin: -595.6px -3.8px; transform: matrix3d(1, 0, 0, 0, 0, 1, 0, 0, 0, 0, 1, 0, 0, 0, 0, 1); animation: 10s linear -6.325s infinite normal forwards running animate-438hoypem5f; transform-box: view-box;"><path d="M17.76 50.80L8.72 50.80L2-7.60L8.88-7.60L13.28 35.60Q13.44 37.36 13.60 39.24Q13.76 41.12 13.88 42.80Q14 44.48 14 45.60L14 45.60Q14.16 44.48 14.28 42.80Q14.40 41.12 14.60 39.24Q14.80 37.36 15.04 35.60L15.04 35.60L20.48-7.60L27.92-7.60L32.88 35.60Q33.12 37.36 33.32 39.24Q33.52 41.12 33.72 42.80Q33.92 44.48 34 45.60L34 45.60Q34.08 44.48 34.20 42.80Q34.32 41.12 34.52 39.24Q34.72 37.36 34.88 35.60L34.88 35.60L39.44-7.60L46-7.60L39.12 50.80L30.08 50.80L25.12 6.80Q24.96 4.96 24.76 3.20Q24.56 1.44 24.40-0.08Q24.24-1.60 24.16-2.56L24.16-2.56Q24.08-1.60 23.88-0.08Q23.68 1.44 23.52 3.20Q23.36 4.96 23.12 6.80L23.12 6.80L17.76 50.80" style="fill: rgb(0, 81, 162);" transform="translate(-619.600,-25.402)"></path></g><g class="path" style="opacity: 1; transform-origin: -547.6px 3.4px; transform: matrix3d(1, 0, 0, 0, 0, 1, 0, 0, 0, 0, 1, 0, 0, 0, 0, 1); animation: 10s linear -6.05s infinite normal forwards running animate-438hoypem5f; transform-box: view-box;"><path d="M72 51.60L72 51.60Q66.80 51.60 62.92 49.52Q59.04 47.44 56.92 43.64Q54.80 39.84 54.80 34.80L54.80 34.80L54.80 22.80Q54.80 17.68 56.92 13.92Q59.04 10.16 62.92 8.08Q66.80 6 72 6L72 6Q77.20 6 81.08 8.08Q84.96 10.16 87.08 13.92Q89.20 17.68 89.20 22.80L89.20 22.80L89.20 30.56L61.84 30.56L61.84 34.80Q61.84 40 64.48 42.76Q67.12 45.52 72 45.52L72 45.52Q76.16 45.52 78.72 44.04Q81.28 42.56 81.84 39.60L81.84 39.60L89.04 39.60Q88.32 45.12 83.64 48.36Q78.96 51.60 72 51.60 zM82.72 25.12L82.16 25.76L82.16 22.80Q82.16 17.60 79.56 14.80Q76.96 12 72 12L72 12Q67.12 12 64.48 14.80Q61.84 17.60 61.84 22.80L61.84 22.80L61.84 25.12L82.72 25.12" style="fill: rgb(27, 117, 190);" transform="translate(-619.600,-25.402)"></path></g><g class="path" style="opacity: 1; transform-origin: -500.4px -3.8px; transform: matrix3d(1, 0, 0, 0, 0, 1, 0, 0, 0, 0, 1, 0, 0, 0, 0, 1); animation: 10s linear -5.775s infinite normal forwards running animate-438hoypem5f; transform-box: view-box;"><path d="M140 50.80L126 50.80Q122.16 50.80 119.28 49.28Q116.40 47.76 114.80 44.96Q113.20 42.16 113.20 38.40L113.20 38.40L113.20-1.04L98.40-1.04L98.40-7.60L120.40-7.60L120.40 38.40Q120.40 41.12 121.92 42.68Q123.44 44.24 126 44.24L126 44.24L140 44.24L140 50.80" style="fill: rgb(64, 142, 224);" transform="translate(-619.600,-25.402)"></path></g><g class="path" style="opacity: 1; transform-origin: -451.48px 3.4px; transform: matrix3d(1, 0, 0, 0, 0, 1, 0, 0, 0, 0, 1, 0, 0, 0, 0, 1); animation: 10s linear -5.5s infinite normal forwards running animate-438hoypem5f; transform-box: view-box;"><path d="M168.32 51.60L168.32 51.60Q163.04 51.60 159.08 49.60Q155.12 47.60 152.96 43.80Q150.80 40 150.80 34.80L150.80 34.80L150.80 22.80Q150.80 17.52 152.96 13.76Q155.12 10 159.08 8Q163.04 6 168.32 6L168.32 6Q175.92 6 180.56 10.08Q185.20 14.16 185.44 21.20L185.44 21.20L178.24 21.20Q178 16.96 175.40 14.68Q172.80 12.40 168.32 12.40L168.32 12.40Q163.60 12.40 160.80 15.08Q158 17.76 158 22.72L158 22.72L158 34.80Q158 39.76 160.80 42.48Q163.60 45.20 168.32 45.20L168.32 45.20Q172.80 45.20 175.40 42.88Q178 40.56 178.24 36.40L178.24 36.40L185.44 36.40Q185.20 43.44 180.56 47.52Q175.92 51.60 168.32 51.60" style="fill: rgb(137, 191, 248);" transform="translate(-619.600,-25.402)"></path></g><g class="path" style="opacity: 1; transform-origin: -403.6px 3.4px; transform: matrix3d(1, 0, 0, 0, 0, 1, 0, 0, 0, 0, 1, 0, 0, 0, 0, 1); animation: 10s linear -5.225s infinite normal forwards running animate-438hoypem5f; transform-box: view-box;"><path d="M216 51.44L216 51.44Q210.72 51.44 206.88 49.44Q203.04 47.44 200.92 43.64Q198.80 39.84 198.80 34.64L198.80 34.64L198.80 22.96Q198.80 17.68 200.92 13.92Q203.04 10.16 206.88 8.16Q210.72 6.16 216 6.16L216 6.16Q221.28 6.16 225.12 8.16Q228.96 10.16 231.08 13.92Q233.20 17.68 233.20 22.88L233.20 22.88L233.20 34.64Q233.20 39.84 231.08 43.64Q228.96 47.44 225.12 49.44Q221.28 51.44 216 51.44 zM216 45.04L216 45.04Q220.72 45.04 223.36 42.40Q226 39.76 226 34.64L226 34.64L226 22.96Q226 17.84 223.36 15.20Q220.72 12.56 216 12.56L216 12.56Q211.36 12.56 208.68 15.20Q206 17.84 206 22.96L206 22.96L206 34.64Q206 39.76 208.68 42.40Q211.36 45.04 216 45.04" style="fill: rgb(191, 223, 254);" transform="translate(-619.600,-25.402)"></path></g><g class="path" style="opacity: 1; transform-origin: -355.6px 3px; transform: matrix3d(1, 0, 0, 0, 0, 1, 0, 0, 0, 0, 1, 0, 0, 0, 0, 1); animation: 10s linear -4.95s infinite normal forwards running animate-438hoypem5f; transform-box: view-box;"><path d="M251.92 50.80L245.28 50.80L245.28 6.80L251.60 6.80L251.60 12.08L253.04 12.08L251.92 14Q251.92 10.32 253.88 8.16Q255.84 6 259.20 6L259.20 6Q262.88 6 264.88 8.72Q266.88 11.44 266.88 16.40L266.88 16.40L264.72 12.08L268.08 12.08L266.56 14Q266.56 10.32 268.60 8.16Q270.64 6 274 6L274 6Q278.16 6 280.44 9.12Q282.72 12.24 282.72 17.36L282.72 17.36L282.72 50.80L276.08 50.80L276.08 17.28Q276.08 14.56 274.92 13.04Q273.76 11.52 271.52 11.52L271.52 11.52Q269.36 11.52 268.12 13Q266.88 14.48 266.88 17.20L266.88 17.20L266.88 50.80L261.12 50.80L261.12 17.28Q261.12 14.48 259.88 13Q258.64 11.52 256.40 11.52L256.40 11.52Q254.16 11.52 253.04 13Q251.92 14.48 251.92 17.20L251.92 17.20L251.92 50.80" style="fill: rgb(0, 81, 162);" transform="translate(-619.600,-25.402)"></path></g><g class="path" style="opacity: 1; transform-origin: -307.6px 3.4px; transform: matrix3d(1, 0, 0, 0, 0, 1, 0, 0, 0, 0, 1, 0, 0, 0, 0, 1); animation: 10s linear -4.675s infinite normal forwards running animate-438hoypem5f; transform-box: view-box;"><path d="M312 51.60L312 51.60Q306.80 51.60 302.92 49.52Q299.04 47.44 296.92 43.64Q294.80 39.84 294.80 34.80L294.80 34.80L294.80 22.80Q294.80 17.68 296.92 13.92Q299.04 10.16 302.92 8.08Q306.80 6 312 6L312 6Q317.20 6 321.08 8.08Q324.96 10.16 327.08 13.92Q329.20 17.68 329.20 22.80L329.20 22.80L329.20 30.56L301.84 30.56L301.84 34.80Q301.84 40 304.48 42.76Q307.12 45.52 312 45.52L312 45.52Q316.16 45.52 318.72 44.04Q321.28 42.56 321.84 39.60L321.84 39.60L329.04 39.60Q328.32 45.12 323.64 48.36Q318.96 51.60 312 51.60 zM322.72 25.12L322.16 25.76L322.16 22.80Q322.16 17.60 319.56 14.80Q316.96 12 312 12L312 12Q307.12 12 304.48 14.80Q301.84 17.60 301.84 22.80L301.84 22.80L301.84 25.12L322.72 25.12" style="fill: rgb(27, 117, 190);" transform="translate(-619.600,-25.402)"></path></g><g class="path" style="opacity: 1; transform-origin: -212.6px -2.8px; transform: matrix3d(1, 0, 0, 0, 0, 1, 0, 0, 0, 0, 1, 0, 0, 0, 0, 1); animation: 10s linear -4.4s infinite normal forwards running animate-438hoypem5f; transform-box: view-box;"><path d="M424.80 50.80L412.80 50.80Q407.12 50.80 403.96 47.76Q400.80 44.72 400.80 39.20L400.80 39.20L400.80 13.36L388.40 13.36L388.40 6.80L400.80 6.80L400.80-5.60L408-5.60L408 6.80L425.60 6.80L425.60 13.36L408 13.36L408 39.20Q408 44.24 412.80 44.24L412.80 44.24L424.80 44.24L424.80 50.80" style="fill: rgb(64, 142, 224);" transform="translate(-619.600,-25.402)"></path></g><g class="path" style="opacity: 1; transform-origin: -163.6px 3.4px; transform: matrix3d(1, 0, 0, 0, 0, 1, 0, 0, 0, 0, 1, 0, 0, 0, 0, 1); animation: 10s linear -4.125s infinite normal forwards running animate-438hoypem5f; transform-box: view-box;"><path d="M456 51.44L456 51.44Q450.72 51.44 446.88 49.44Q443.04 47.44 440.92 43.64Q438.80 39.84 438.80 34.64L438.80 34.64L438.80 22.96Q438.80 17.68 440.92 13.92Q443.04 10.16 446.88 8.16Q450.72 6.16 456 6.16L456 6.16Q461.28 6.16 465.12 8.16Q468.96 10.16 471.08 13.92Q473.20 17.68 473.20 22.88L473.20 22.88L473.20 34.64Q473.20 39.84 471.08 43.64Q468.96 47.44 465.12 49.44Q461.28 51.44 456 51.44 zM456 45.04L456 45.04Q460.72 45.04 463.36 42.40Q466 39.76 466 34.64L466 34.64L466 22.96Q466 17.84 463.36 15.20Q460.72 12.56 456 12.56L456 12.56Q451.36 12.56 448.68 15.20Q446 17.84 446 22.96L446 22.96L446 34.64Q446 39.76 448.68 42.40Q451.36 45.04 456 45.04" style="fill: rgb(137, 191, 248);" transform="translate(-619.600,-25.402)"></path></g><g class="path" style="opacity: 1; transform-origin: -65.8px 3px; transform: matrix3d(1, 0, 0, 0, 0, 1, 0, 0, 0, 0, 1, 0, 0, 0, 0, 1); animation: 10s linear -3.85s infinite normal forwards running animate-438hoypem5f; transform-box: view-box;"><path d="M544.08 50.80L536.88 50.80L536.88 6.80L543.92 6.80L543.92 15.20L545.60 15.20L543.28 20.40Q543.28 13.28 546.36 9.64Q549.44 6 555.52 6L555.52 6Q562.48 6 566.60 10.36Q570.72 14.72 570.72 22.16L570.72 22.16L570.72 24.80L563.52 24.80L563.52 22.80Q563.52 17.60 561 14.84Q558.48 12.08 553.84 12.08L553.84 12.08Q549.28 12.08 546.68 14.88Q544.08 17.68 544.08 22.80L544.08 22.80L544.08 50.80" style="fill: rgb(191, 223, 254);" transform="translate(-619.600,-25.402)"></path></g><g class="path" style="opacity: 1; transform-origin: -19.6px 10.6px; transform: matrix3d(1, 0, 0, 0, 0, 1, 0, 0, 0, 0, 1, 0, 0, 0, 0, 1); animation: 10s linear -3.575s infinite normal forwards running animate-438hoypem5f; transform-box: view-box;"><path d="M597.92 65.20L590.24 65.20L596.72 48.08L580.40 6.80L588.40 6.80L598.64 34Q599.20 35.36 599.68 37.24Q600.16 39.12 600.48 40.40L600.48 40.40Q600.80 39.12 601.28 37.24Q601.76 35.36 602.24 34L602.24 34L611.84 6.80L619.60 6.80L597.92 65.20" style="fill: rgb(0, 81, 162);" transform="translate(-619.600,-25.402)"></path></g><g class="path" style="opacity: 1; transform-origin: 28.4px 3.4px; transform: matrix3d(1, 0, 0, 0, 0, 1, 0, 0, 0, 0, 1, 0, 0, 0, 0, 1); animation: 10s linear -3.3s infinite normal forwards running animate-438hoypem5f; transform-box: view-box;"><path d="M648 51.44L648 51.44Q642.72 51.44 638.88 49.44Q635.04 47.44 632.92 43.64Q630.80 39.84 630.80 34.64L630.80 34.64L630.80 22.96Q630.80 17.68 632.92 13.92Q635.04 10.16 638.88 8.16Q642.72 6.16 648 6.16L648 6.16Q653.28 6.16 657.12 8.16Q660.96 10.16 663.08 13.92Q665.20 17.68 665.20 22.88L665.20 22.88L665.20 34.64Q665.20 39.84 663.08 43.64Q660.96 47.44 657.12 49.44Q653.28 51.44 648 51.44 zM648 45.04L648 45.04Q652.72 45.04 655.36 42.40Q658 39.76 658 34.64L658 34.64L658 22.96Q658 17.84 655.36 15.20Q652.72 12.56 648 12.56L648 12.56Q643.36 12.56 640.68 15.20Q638 17.84 638 22.96L638 22.96L638 34.64Q638 39.76 640.68 42.40Q643.36 45.04 648 45.04" style="fill: rgb(27, 117, 190);" transform="translate(-619.600,-25.402)"></path></g><g class="path" style="opacity: 1; transform-origin: 76.4px 3.4px; transform: matrix3d(1, 0, 0, 0, 0, 1, 0, 0, 0, 0, 1, 0, 0, 0, 0, 1); animation: 10s linear -3.025s infinite normal forwards running animate-438hoypem5f; transform-box: view-box;"><path d="M696 51.44L696 51.44Q690.72 51.44 686.88 49.44Q683.04 47.44 680.92 43.64Q678.80 39.84 678.80 34.64L678.80 34.64L678.80 22.96Q678.80 17.68 680.92 13.92Q683.04 10.16 686.88 8.16Q690.72 6.16 696 6.16L696 6.16Q701.28 6.16 705.12 8.16Q708.96 10.16 711.08 13.92Q713.20 17.68 713.20 22.88L713.20 22.88L713.20 34.64Q713.20 39.84 711.08 43.64Q708.96 47.44 705.12 49.44Q701.28 51.44 696 51.44 zM696 45.04L696 45.04Q700.72 45.04 703.36 42.40Q706 39.76 706 34.64L706 34.64L706 22.96Q706 17.84 703.36 15.20Q700.72 12.56 696 12.56L696 12.56Q691.36 12.56 688.68 15.20Q686 17.84 686 22.96L686 22.96L686 34.64Q686 39.76 688.68 42.40Q691.36 45.04 696 45.04" style="fill: rgb(64, 142, 224);" transform="translate(-619.600,-25.402)"></path></g><g class="path" style="opacity: 1; transform-origin: 124.4px 3.4px; transform: matrix3d(1, 0, 0, 0, 0, 1, 0, 0, 0, 0, 1, 0, 0, 0, 0, 1); animation: 10s linear -2.75s infinite normal forwards running animate-438hoypem5f; transform-box: view-box;"><path d="M744 51.44L744 51.44Q738.72 51.44 734.88 49.44Q731.04 47.44 728.92 43.64Q726.80 39.84 726.80 34.64L726.80 34.64L726.80 22.96Q726.80 17.68 728.92 13.92Q731.04 10.16 734.88 8.16Q738.72 6.16 744 6.16L744 6.16Q749.28 6.16 753.12 8.16Q756.96 10.16 759.08 13.92Q761.20 17.68 761.20 22.88L761.20 22.88L761.20 34.64Q761.20 39.84 759.08 43.64Q756.96 47.44 753.12 49.44Q749.28 51.44 744 51.44 zM744 45.04L744 45.04Q748.72 45.04 751.36 42.40Q754 39.76 754 34.64L754 34.64L754 22.96Q754 17.84 751.36 15.20Q748.72 12.56 744 12.56L744 12.56Q739.36 12.56 736.68 15.20Q734 17.84 734 22.96L734 22.96L734 34.64Q734 39.76 736.68 42.40Q739.36 45.04 744 45.04" style="fill: rgb(137, 191, 248);" transform="translate(-619.600,-25.402)"></path></g><g class="path" style="opacity: 1; transform-origin: 171.96px -21px; transform: matrix3d(1, 0, 0, 0, 0, 1, 0, 0, 0, 0, 1, 0, 0, 0, 0, 1); animation: 10s linear -2.475s infinite normal forwards running animate-438hoypem5f; transform-box: view-box;"><path d="M794.56 16.40L788.64 16.40L787.68 4.40L787.68-7.60L795.44-7.60L795.44 4.40L794.56 16.40" style="fill: rgb(191, 223, 254);" transform="translate(-619.600,-25.402)"></path></g><g class="path" style="opacity: 1; transform-origin: 220.8px 3.4px; transform: matrix3d(1, 0, 0, 0, 0, 1, 0, 0, 0, 0, 1, 0, 0, 0, 0, 1); animation: 10s linear -2.2s infinite normal forwards running animate-438hoypem5f; transform-box: view-box;"><path d="M842 51.44L838.64 51.44Q834.16 51.44 830.84 50.04Q827.52 48.64 825.56 46.08Q823.60 43.52 823.20 40L823.20 40L830.40 40Q830.88 42.32 833 43.68Q835.12 45.04 838.64 45.04L838.64 45.04L842 45.04Q846.24 45.04 848.32 43.32Q850.40 41.60 850.40 38.72L850.40 38.72Q850.40 35.92 848.52 34.28Q846.64 32.64 842.96 32.08L842.96 32.08L837.04 31.12Q830.56 30 827.40 27.08Q824.24 24.16 824.24 18.56L824.24 18.56Q824.24 12.64 828 9.40Q831.76 6.16 839.28 6.16L839.28 6.16L842.32 6.16Q848.64 6.16 852.48 9.12Q856.32 12.08 857.12 17.12L857.12 17.12L849.92 17.12Q849.44 15.04 847.52 13.80Q845.60 12.56 842.32 12.56L842.32 12.56L839.28 12.56Q835.20 12.56 833.32 14.08Q831.44 15.60 831.44 18.64L831.44 18.64Q831.44 21.36 833.04 22.64Q834.64 23.92 838.08 24.48L838.08 24.48L844 25.44Q851.12 26.56 854.36 29.60Q857.60 32.64 857.60 38.40L857.60 38.40Q857.60 44.48 853.72 47.96Q849.84 51.44 842 51.44L842 51.44" style="fill: rgb(0, 81, 162);" transform="translate(-619.600,-25.402)"></path></g><g class="path" style="opacity: 1; transform-origin: 316.68px 10.2px; transform: matrix3d(1, 0, 0, 0, 0, 1, 0, 0, 0, 0, 1, 0, 0, 0, 0, 1); animation: 10s linear -1.925s infinite normal forwards running animate-438hoypem5f; transform-box: view-box;"><path d="M926.56 65.20L919.36 65.20L919.36 6.80L926.56 6.80L926.56 15.20L928 15.20L926.56 16.88Q926.56 11.84 929.88 8.92Q933.20 6 938.64 6L938.64 6Q945.28 6 949.24 10.36Q953.20 14.72 953.20 22.32L953.20 22.32L953.20 35.20Q953.20 40.24 951.40 43.92Q949.60 47.60 946.36 49.60Q943.12 51.60 938.64 51.60L938.64 51.60Q933.28 51.60 929.92 48.64Q926.56 45.68 926.56 40.72L926.56 40.72L928 42.40L926.40 42.40L926.56 52.40L926.56 65.20 zM936.24 45.36L936.24 45.36Q940.80 45.36 943.40 42.64Q946 39.92 946 34.80L946 34.80L946 22.80Q946 17.68 943.40 14.96Q940.80 12.24 936.24 12.24L936.24 12.24Q931.84 12.24 929.20 15.04Q926.56 17.84 926.56 22.80L926.56 22.80L926.56 34.80Q926.56 39.76 929.20 42.56Q931.84 45.36 936.24 45.36" style="fill: rgb(27, 117, 190);" transform="translate(-619.600,-25.402)"></path></g><g class="path" style="opacity: 1; transform-origin: 366.2px 3px; transform: matrix3d(1, 0, 0, 0, 0, 1, 0, 0, 0, 0, 1, 0, 0, 0, 0, 1); animation: 10s linear -1.65s infinite normal forwards running animate-438hoypem5f; transform-box: view-box;"><path d="M976.08 50.80L968.88 50.80L968.88 6.80L975.92 6.80L975.92 15.20L977.60 15.20L975.28 20.40Q975.28 13.28 978.36 9.64Q981.44 6 987.52 6L987.52 6Q994.48 6 998.60 10.36Q1002.72 14.72 1002.72 22.16L1002.72 22.16L1002.72 24.80L995.52 24.80L995.52 22.80Q995.52 17.60 993 14.84Q990.48 12.08 985.84 12.08L985.84 12.08Q981.28 12.08 978.68 14.88Q976.08 17.68 976.08 22.80L976.08 22.80L976.08 50.80" style="fill: rgb(64, 142, 224);" transform="translate(-619.600,-25.402)"></path></g><g class="path" style="opacity: 1; transform-origin: 412.4px 3.4px; transform: matrix3d(1, 0, 0, 0, 0, 1, 0, 0, 0, 0, 1, 0, 0, 0, 0, 1); animation: 10s linear -1.375s infinite normal forwards running animate-438hoypem5f; transform-box: view-box;"><path d="M1032 51.44L1032 51.44Q1026.72 51.44 1022.88 49.44Q1019.04 47.44 1016.92 43.64Q1014.80 39.84 1014.80 34.64L1014.80 34.64L1014.80 22.96Q1014.80 17.68 1016.92 13.92Q1019.04 10.16 1022.88 8.16Q1026.72 6.16 1032 6.16L1032 6.16Q1037.28 6.16 1041.12 8.16Q1044.96 10.16 1047.08 13.92Q1049.20 17.68 1049.20 22.88L1049.20 22.88L1049.20 34.64Q1049.20 39.84 1047.08 43.64Q1044.96 47.44 1041.12 49.44Q1037.28 51.44 1032 51.44 zM1032 45.04L1032 45.04Q1036.72 45.04 1039.36 42.40Q1042 39.76 1042 34.64L1042 34.64L1042 22.96Q1042 17.84 1039.36 15.20Q1036.72 12.56 1032 12.56L1032 12.56Q1027.36 12.56 1024.68 15.20Q1022 17.84 1022 22.96L1022 22.96L1022 34.64Q1022 39.76 1024.68 42.40Q1027.36 45.04 1032 45.04" style="fill: rgb(137, 191, 248);" transform="translate(-619.600,-25.402)"></path></g><g class="path" style="opacity: 1; transform-origin: 460.2px -3.8px; transform: matrix3d(1, 0, 0, 0, 0, 1, 0, 0, 0, 0, 1, 0, 0, 0, 0, 1); animation: 10s linear -1.1s infinite normal forwards running animate-438hoypem5f; transform-box: view-box;"><path d="M1080.80 50.80L1073.60 50.80L1073.60 17.76L1060.80 17.76L1060.80 11.20L1073.60 11.20L1073.60 3.60Q1073.60-1.60 1076.88-4.60Q1080.16-7.60 1085.92-7.60L1085.92-7.60L1098.80-7.60L1098.80-1.04L1085.92-1.04Q1083.44-1.04 1082.12 0.12Q1080.80 1.28 1080.80 3.60L1080.80 3.60L1080.80 11.20L1098.80 11.20L1098.80 17.76L1080.80 17.76L1080.80 50.80" style="fill: rgb(191, 223, 254);" transform="translate(-619.600,-25.402)"></path></g><g class="path" style="opacity: 1; transform-origin: 510px 3.4px; transform: matrix3d(1, 0, 0, 0, 0, 1, 0, 0, 0, 0, 1, 0, 0, 0, 0, 1); animation: 10s linear -0.825s infinite normal forwards running animate-438hoypem5f; transform-box: view-box;"><path d="M1148.40 50.80L1110.80 50.80L1110.80 44.24L1126.40 44.24L1126.40 13.36L1112.80 13.36L1112.80 6.80L1133.60 6.80L1133.60 44.24L1148.40 44.24L1148.40 50.80" style="fill: rgb(0, 81, 162);" transform="translate(-619.600,-25.402)"></path></g><g class="path" style="opacity: 1; transform-origin: 509.6px -31.64px; transform: matrix3d(1, 0, 0, 0, 0, 1, 0, 0, 0, 0, 1, 0, 0, 0, 0, 1); animation: 10s linear -0.55s infinite normal forwards running animate-438hoypem5f; transform-box: view-box;"><path d="M1129.20-1.12L1129.20-1.12Q1126.56-1.12 1125.04-2.48Q1123.52-3.84 1123.52-6.16L1123.52-6.16Q1123.52-8.56 1125.04-9.96Q1126.56-11.36 1129.20-11.36L1129.20-11.36Q1131.84-11.36 1133.36-9.96Q1134.88-8.56 1134.88-6.16L1134.88-6.16Q1134.88-3.84 1133.36-2.48Q1131.84-1.12 1129.20-1.12" style="fill: rgb(27, 117, 190);" transform="translate(-619.600,-25.402)"></path></g><g class="path" style="opacity: 1; transform-origin: 555.6px -3.8px; transform: matrix3d(1, 0, 0, 0, 0, 1, 0, 0, 0, 0, 1, 0, 0, 0, 0, 1); animation: 10s linear -0.275s infinite normal forwards running animate-438hoypem5f; transform-box: view-box;"><path d="M1196 50.80L1182 50.80Q1178.16 50.80 1175.28 49.28Q1172.40 47.76 1170.80 44.96Q1169.20 42.16 1169.20 38.40L1169.20 38.40L1169.20-1.04L1154.40-1.04L1154.40-7.60L1176.40-7.60L1176.40 38.40Q1176.40 41.12 1177.92 42.68Q1179.44 44.24 1182 44.24L1182 44.24L1196 44.24L1196 50.80" style="fill: rgb(64, 142, 224);" transform="translate(-619.600,-25.402)"></path></g><g class="path" style="opacity: 1; transform-origin: 604.4px 3.4px; transform: matrix3d(1, 0, 0, 0, 0, 1, 0, 0, 0, 0, 1, 0, 0, 0, 0, 1); animation: 10s linear 0s infinite normal forwards running animate-438hoypem5f; transform-box: view-box;"><path d="M1224 51.60L1224 51.60Q1218.80 51.60 1214.92 49.52Q1211.04 47.44 1208.92 43.64Q1206.80 39.84 1206.80 34.80L1206.80 34.80L1206.80 22.80Q1206.80 17.68 1208.92 13.92Q1211.04 10.16 1214.92 8.08Q1218.80 6 1224 6L1224 6Q1229.20 6 1233.08 8.08Q1236.96 10.16 1239.08 13.92Q1241.20 17.68 1241.20 22.80L1241.20 22.80L1241.20 30.56L1213.84 30.56L1213.84 34.80Q1213.84 40 1216.48 42.76Q1219.12 45.52 1224 45.52L1224 45.52Q1228.16 45.52 1230.72 44.04Q1233.28 42.56 1233.84 39.60L1233.84 39.60L1241.04 39.60Q1240.32 45.12 1235.64 48.36Q1230.96 51.60 1224 51.60 zM1234.72 25.12L1234.16 25.76L1234.16 22.80Q1234.16 17.60 1231.56 14.80Q1228.96 12 1224 12L1224 12Q1219.12 12 1216.48 14.80Q1213.84 17.60 1213.84 22.80L1213.84 22.80L1213.84 25.12L1234.72 25.12" style="fill: rgb(137, 191, 248);" transform="translate(-619.600,-25.402)"></path></g></g><text dy="0.35em" fill="#0051a2" font-family="JetBrains Mono" font-size="73">Welcome to ryooo's profile</text>
</g>
</g><style type="text/css">@keyframes animate-438hoypem5f { 0.00% {transform: translate(0.00px,0.00px) rotate(0.00deg) scale(1.00, 1.00) skew(0deg, 0.00deg) ;opacity: 1.00;}4.00% {transform: translate(0.38px,2.87px) rotate(2.75deg) ;}6.00% {transform: translate(0.57px,4.30px) rotate(4.13deg) ;}8.00% {animation-timing-function: cubic-bezier(0.69,0.61,0.35,0.28);transform: translate(0.76px,5.74px) rotate(5.51deg) ;}12.00% {transform: translate(1.13px,3.81px) rotate(-1.45deg) ;}14.00% {transform: translate(1.31px,2.62px) rotate(-5.37deg) ;}16.00% {animation-timing-function: cubic-bezier(0.69,0.59,0.36,0.26);transform: translate(1.50px,1.44px) rotate(-9.30deg) ;}20.00% {transform: translate(1.86px,-1.69px) rotate(-0.82deg) ;}22.00% {transform: translate(2.04px,-3.33px) rotate(5.05deg) ;}24.00% {transform: translate(2.22px,-4.97px) rotate(10.92deg) ;}26.00% {transform: translate(2.39px,-5.35px) rotate(10.39deg) ;}30.00% {transform: translate(2.73px,-3.55px) rotate(-3.46deg) ;}32.00% {transform: translate(2.90px,-2.66px) rotate(-10.38deg) ;}34.00% {transform: translate(3.07px,-1.46px) rotate(-12.69deg) ;}36.00% {transform: translate(3.23px,0.34px) rotate(-5.76deg) ;}38.00% {transform: translate(3.38px,2.14px) rotate(1.16deg) ;}40.00% {transform: translate(3.54px,3.93px) rotate(8.09deg) ;}42.00% {transform: translate(3.70px,5.34px) rotate(12.88deg) ;}44.00% {transform: translate(3.84px,4.76px) rotate(7.01deg) ;}46.00% {transform: translate(3.98px,4.17px) rotate(1.13deg) ;}48.00% {animation-timing-function: cubic-bezier(0.33,0.20,0.67,0.40);transform: translate(4.12px,3.59px) rotate(-4.74deg) ;}50.00% {animation-timing-function: cubic-bezier(0.33,0.20,0.67,0.40);transform: translate(NaNpx,NaNpx) rotate(0.00deg) scale(0.00, 0.00) ;}52.00% {transform: translate(4.39px,1.11px) rotate(-6.69deg) scale(1.00, 1.00) ;}54.00% {transform: translate(4.51px,-0.79px) rotate(-2.76deg) ;}56.00% {transform: translate(4.64px,-2.69px) rotate(1.17deg) ;}58.00% {transform: translate(4.76px,-4.59px) rotate(5.10deg) ;}60.00% {transform: translate(4.87px,-4.70px) rotate(4.60deg) ;}62.00% {transform: translate(4.97px,-4.45px) rotate(3.21deg) ;}64.00% {transform: translate(5.08px,-4.20px) rotate(1.83deg) ;}66.00% {animation-timing-function: cubic-bezier(0.67,0.65,0.34,0.31);transform: translate(5.18px,-3.95px) rotate(0.45deg) ;}70.00% {transform: translate(5.35px,-0.63px) rotate(-2.30deg) ;}74.00% {animation-timing-function: cubic-bezier(0.65,0.73,0.31,0.40);transform: translate(5.52px,3.26px) rotate(-5.04deg) ;}78.00% {transform: translate(5.65px,4.37px) rotate(0.15deg) ;}80.00% {transform: translate(5.71px,4.46px) rotate(4.07deg) ;}82.00% {transform: translate(5.77px,4.55px) rotate(7.98deg) ;}84.00% {transform: translate(5.82px,3.97px) rotate(8.64deg) ;}86.00% {transform: translate(5.85px,2.04px) rotate(2.77deg) ;}88.00% {transform: translate(5.89px,0.11px) rotate(-3.09deg) ;}90.00% {transform: translate(5.93px,-1.81px) rotate(-8.96deg) ;}92.00% {transform: translate(5.72px,-3.28px) rotate(-13.30deg) ;}94.00% {transform: translate(4.29px,-2.46px) rotate(-9.97deg) ;}96.00% {transform: translate(2.86px,-1.64px) rotate(-6.65deg) ;}100.00% {transform: translate(NaNpx,NaNpx) rotate(0.00deg) scale(0.00, 0.00) ;} }</style><!-- [ldio] generated by https://loading.io --></svg>